<?xml version="1.0" encoding="UTF-8"?>
<svg id="Layer_1" xmlns="http://www.w3.org/2000/svg" version="1.1" viewBox="0 0 583.18 590.21">
  <!-- Generator: Adobe Illustrator 30.1.0, SVG Export Plug-In . SVG Version: 2.1.1 Build 65)  -->
  <defs>
    <style>
      .st0 {
        fill: #222e37;
      }
    </style>
  </defs>
  <path class="st0" d="M0,0h189.75C238.64,0,278.33,39.69,278.33,88.58v189.75H88.58C39.69,278.33,0,238.64,0,189.75V0H0Z"/>
  <path class="st0" d="M563.18,20v169.75c0,37.81-30.76,68.58-68.58,68.58h-71.68c-54.07,0-98.07-43.99-98.07-98.07v-71.68c0-37.81,30.76-68.58,68.58-68.58h169.75M583.18,0h-189.75c-48.92,0-88.58,39.66-88.58,88.58v71.68c0,65.21,52.86,118.07,118.07,118.07h71.68c48.92,0,88.58-39.66,88.58-88.58V0h0Z"/>
  <path class="st0" d="M88.58,311.89h71.68c65.16,0,118.07,52.9,118.07,118.07v71.68c0,48.89-39.69,88.58-88.58,88.58H0v-189.75C0,351.58,39.69,311.89,88.58,311.89Z"/>
  <path class="st0" d="M304.85,311.89h189.75c48.89,0,88.58,39.69,88.58,88.58v189.75h-189.75c-48.89,0-88.58-39.69-88.58-88.58v-189.75h0Z" transform="translate(888.02 902.1) rotate(180)"/>
</svg>